Coordinates
version=1
nRows=4
nColumns=107
inDegrees=yes

Units are S.I. units (second, meters, Newtons, ...)
If the header above contains a line with 'inDegrees', this indicates whether rotational values are in degrees (yes) or radians (no).

endheader
time	sternoclavicular_r2	sternoclavicular_r3	unrotscap_r3	unrotscap_r2	acromioclavicular_r2	acromioclavicular_r3	acromioclavicular_r1	unrothum_r1	unrothum_r3	unrothum_r2	elv_angle	shoulder_elv	shoulder1_r2	shoulder_rot	elbow_flexion	pro_sup	deviation	flexion	proximal_distal_r1	proximal_distal_r3	cmc_flexion	cmc_abduction	mp_flexion	ip_flexion	mcp2_flexion	mcp2_abduction	pm2_flexion	md2_flexion	mcp3_flexion	mcp3_abduction	pm3_flexion	md3_flexion	mcp4_flexion	mcp4_abduction	pm4_flexion	md4_flexion	mcp5_flexion	mcp5_abduction	pm5_flexion	md5_flexion	bicpt_tx	bicpt_ty	bicpt_tz	bicpt2_tx	bicpt2_ty	bicpt2_tz	ptpt_tx	ptpt_ty	ptpt_tz	FCUpt_tx	FCUpt_ty	FCUpt_tz	EDCpt_tx	EDCpt_ty	EDCpt_tz	APLpt_tx	APLpt_ty	APLpt_tz	FPLpt_tx	FPLpt_ty	FPLpt_tz	FPLpt2_tx	FPLpt2_ty	FPLpt2_tz	PEC1pt2_tx	PEC1pt2_ty	PEC1pt2_tz	PEC1pt3_tx	PEC1pt3_ty	PEC1pt3_tz	PEC2pt2_tx	PEC2pt2_ty	PEC2pt2_tz	PEC2pt3_tx	PEC2pt3_ty	PEC2pt3_tz	PEC3pt2_tx	PEC3pt2_ty	PEC3pt2_tz	PEC3pt3_tx	PEC3pt3_ty	PEC3pt3_tz	DELT2pt2a_tx	DELT2pt2a_ty	DELT2pt2a_tz	DELT2pt2_tx	DELT2pt2_ty	DELT2pt2_tz	LAT1pt2_tx	LAT1pt2_ty	LAT1pt2_tz	LAT1pt3_tx	LAT1pt3_ty	LAT1pt3_tz	LAT2pt2_tx	LAT2pt2_ty	LAT2pt2_tz	LAT2pt3_tx	LAT2pt3_ty	LAT2pt3_tz	LAT3pt2_tx	LAT3pt2_ty	LAT3pt2_tz	LAT3pt3_tx	LAT3pt3_ty	LAT3pt3_tz
      0.43333333	     -0.32518384	      0.13773253	     -0.13773253	      0.32518384	     -0.06584311	      0.53212087	      0.23918467	     -0.23918467	     -0.53212087	      0.06584311	     98.46337878	     76.99016400	     -1.71851015	    -19.77417543	     29.46763286	     39.59475915	      0.16182960	     -0.54365722	      0.19818981	     -0.27182861	     17.89698738	    -18.31587202	    -20.24754546	    -36.91454979	      7.98617469	      7.09319505	     48.27059039	     13.80785742	     11.51426512	      0.26509020	     32.36834780	     23.27900812	     12.79060889	     -5.74083500	     24.70389792	     26.29263667	     11.88223737	    -13.22753017	     17.23202082	      5.26301734	      0.00087470	     -0.03097744	     -0.00484402	      0.01657346	     -0.01820503	     -0.00751317	      0.00462439	     -0.06679175	     -0.00323957	      0.00773946	     -0.18350347	     -0.00038348	     -0.00475136	      0.00136378	      0.00014929	      0.00030872	      0.00012349	      0.00061743	      0.00039516	      0.00118547	      0.00066683	      0.00001699	     -0.00026948	     -0.00032338	      0.00252357	      0.00885388	      0.00615922	     -0.00825506	      0.01993191	     -0.01890538	      0.00252357	      0.00885388	      0.00615922	      0.00055604	      0.01847765	     -0.00970932	      0.00397898	      0.00492353	      0.01604301	      0.00000000	      0.00792841	      0.00000000	     -0.00722853	     -0.03340520	     -0.00653816	      0.01364560	     -0.00042501	     -0.00322020	     -0.00089822	      0.01505587	     -0.00615922	      0.00248080	      0.02172835	     -0.01796439	     -0.00603090	      0.01304557	     -0.00551763	     -0.01257507	      0.02754539	     -0.03083886	     -0.02361034	      0.01458537	     -0.00739962	     -0.01565468	      0.03182263	     -0.03853789
      0.46666667	     -0.32500713	      0.13765768	     -0.13765768	      0.32500713	     -0.06580733	      0.53183171	      0.23905469	     -0.23905469	     -0.53183171	      0.06580733	     98.53190249	     76.94832664	     -1.71970612	    -20.01969078	     29.41488044	     39.84658721	      0.16038948	     -0.54842732	      0.19661519	     -0.27421366	     18.29102536	    -18.22396252	    -20.48961107	    -37.27606852	      7.84346087	      7.30811843	     48.62772710	     14.28954926	     12.02895797	      0.37693362	     31.77389858	     23.86097734	     13.21970664	     -5.62223424	     24.14081599	     26.75205001	     11.83495877	    -13.21583987	     18.17718182	      5.19416875	      0.00087295	     -0.03097139	     -0.00484304	      0.01657409	     -0.01819070	     -0.00748639	      0.00460579	     -0.06680378	     -0.00325986	      0.00776480	     -0.18349825	     -0.00038532	     -0.00478158	      0.00137401	      0.00014752	      0.00030924	      0.00012370	      0.00061849	      0.00039583	      0.00118750	      0.00066797	      0.00001603	     -0.00027144	     -0.00032572	      0.00252220	      0.00884907	      0.00615587	     -0.00825058	      0.01992108	     -0.01889511	      0.00252220	      0.00884907	      0.00615587	      0.00055574	      0.01846761	     -0.00970405	      0.00397741	      0.00492085	      0.01603922	      0.00000000	      0.00791974	      0.00000000	     -0.00722460	     -0.03338705	     -0.00653096	      0.01378762	     -0.00043254	     -0.00330502	     -0.00089773	      0.01504769	     -0.00615587	      0.00247945	      0.02171655	     -0.01795462	     -0.00602762	      0.01303848	     -0.00551463	     -0.01256824	      0.02753042	     -0.03082211	     -0.02359751	      0.01457745	     -0.00739560	     -0.01564617	      0.03180534	     -0.03851694
      0.50000000	     -0.32211224	      0.13643154	     -0.13643154	      0.32211224	     -0.06522118	      0.52709461	      0.23692540	     -0.23692540	     -0.52709461	      0.06522118	     99.13426404	     76.26293622	     -1.73021931	    -23.36533862	     29.58882320	     42.92676687	      0.14188392	     -0.55272395	      0.17607906	     -0.27636197	     18.21261893	    -18.30008608	    -20.29890511	    -37.71792343	      7.41808383	      7.44546710	     49.03084206	     14.75024676	     11.90702516	      0.46362575	     31.56207987	     24.58590205	     13.22041280	     -5.55896609	     24.00945776	     27.54798192	     11.67048779	    -13.17130880	     18.29213145	      5.19874246	      0.00087871	     -0.03099133	     -0.00484625	      0.01657008	     -0.01823795	     -0.00715159	      0.00437820	     -0.06695094	     -0.00350798	      0.00807622	     -0.18343296	     -0.00040397	     -0.00515120	      0.00150062	      0.00012309	      0.00030967	      0.00012387	      0.00061934	      0.00039638	      0.00118913	      0.00066889	      0.00001622	     -0.00027104	     -0.00032525	      0.00249973	      0.00877025	      0.00610104	     -0.00817709	      0.01974364	     -0.01872680	      0.00249973	      0.00877025	      0.00610104	      0.00055079	      0.01830312	     -0.00961761	      0.00395157	      0.00487702	      0.01597651	      0.00000000	      0.00777829	      0.00000000	     -0.00716025	     -0.03308967	     -0.00641355	      0.01564250	     -0.00053748	     -0.00455357	     -0.00088974	      0.01491365	     -0.00610104	      0.00245736	      0.02152311	     -0.01779470	     -0.00597394	      0.01292234	     -0.00546552	     -0.01245629	      0.02728521	     -0.03054757	     -0.02338732	      0.01444760	     -0.00732972	     -0.01550681	      0.03152204	     -0.03817387
      0.53333333	     -0.32324101	      0.13690963	     -0.13690963	      0.32324101	     -0.06544973	      0.52894168	      0.23775565	     -0.23775565	     -0.52894168	      0.06544973	     98.87092902	     76.53018157	     -1.72562325	    -22.04369887	     29.59261569	     41.83783629	      0.15096864	     -0.54124526	      0.18623070	     -0.27062263	     18.05827013	    -18.35166588	    -20.19273006	    -37.65858549	      7.29892246	      7.35236948	     49.14002621	     15.06293236	     11.88885707	      0.40728608	     31.57508995	     24.51221336	     13.19347786	     -5.61460189	     23.98671929	     27.82223362	     11.65716454	    -13.16131199	     18.20470666	      5.23247614	      0.00087883	     -0.03099177	     -0.00484632	      0.01657399	     -0.01823898	     -0.00727148	      0.00445866	     -0.06689891	     -0.00342026	      0.00796579	     -0.18345635	     -0.00039820	     -0.00502053	      0.00145552	      0.00013231	      0.00030844	      0.00012338	      0.00061689	      0.00039481	      0.00118443	      0.00066624	      0.00001660	     -0.00027031	     -0.00032437	      0.00250849	      0.00880098	      0.00612242	     -0.00820574	      0.01981283	     -0.01879243	      0.00250849	      0.00880098	      0.00612242	      0.00055272	      0.01836726	     -0.00965131	      0.00396167	      0.00489411	      0.01600110	      0.00000000	      0.00783329	      0.00000000	     -0.00718534	     -0.03320562	     -0.00645920	      0.01492765	     -0.00049552	     -0.00404010	     -0.00089285	      0.01496591	     -0.00612242	      0.00246597	      0.02159854	     -0.01785706	     -0.00599487	      0.01296763	     -0.00548467	     -0.01249994	      0.02738082	     -0.03065462	     -0.02346928	      0.01449823	     -0.00735541	     -0.01556115	      0.03163250	     -0.03830764
